<svg width="40" height="40" viewBox="0 0 40 40" fill="none" xmlns="http://www.w3.org/2000/svg">
<path d="M28.8215 23.8215C28.1707 24.4723 28.1707 25.5276 28.8215 26.1785C29.4723 26.8293 30.5277 26.8293 31.1785 26.1785L36.0335 21.3235C36.0585 21.2985 36.0828 21.2728 36.1062 21.2466C36.45 20.9413 36.6667 20.496 36.6667 20C36.6667 19.504 36.45 19.0586 36.1062 18.7533C36.0828 18.7271 36.0585 18.7015 36.0335 18.6765L31.1785 13.8215C30.5277 13.1706 29.4723 13.1706 28.8215 13.8215C28.1707 14.4723 28.1707 15.5276 28.8215 16.1785L30.9763 18.3333H21.6667C20.7462 18.3333 20 19.0795 20 20C20 20.9205 20.7462 21.6666 21.6667 21.6666H30.9763L28.8215 23.8215Z" fill="#F67585"/>
<path d="M8.33325 3.33331C5.57184 3.33331 3.33325 5.5719 3.33325 8.33331V31.6666C3.33325 34.4281 5.57184 36.6666 8.33325 36.6666H24.1666C26.4678 36.6666 28.3333 34.8011 28.3333 32.5V27.8876C28.0864 27.745 27.8541 27.5681 27.6429 27.357C26.5522 26.2663 26.3754 24.6081 27.1123 23.3333H21.6666C19.8256 23.3333 18.3333 21.841 18.3333 20C18.3333 18.159 19.8256 16.6666 21.6666 16.6666H27.1123C26.3754 15.3919 26.5522 13.7336 27.6429 12.643C27.8541 12.4318 28.0864 12.2549 28.3333 12.1123V7.49998C28.3333 5.1988 26.4678 3.33331 24.1666 3.33331H8.33325Z" fill="#F67585"/>
</svg>
