<svg width="132" height="87" viewBox="0 0 132 87" fill="none" xmlns="http://www.w3.org/2000/svg">
<path d="M11.4561 29.3223C13.1553 29.3223 14.1367 28.3115 14.1367 26.5244V20.4893H22.5596V26.5244C22.5596 28.3115 23.541 29.3223 25.2402 29.3223C26.9395 29.3223 27.9209 28.3115 27.9209 26.5244V10.3379C27.9209 8.55078 26.9395 7.54004 25.2402 7.54004C23.541 7.54004 22.5596 8.55078 22.5596 10.3379V16.1533H14.1367V10.3379C14.1367 8.55078 13.1553 7.54004 11.4561 7.54004C9.75684 7.54004 8.76074 8.55078 8.76074 10.3379V26.5244C8.76074 28.3115 9.75684 29.3223 11.4561 29.3223ZM38.4531 29.3809C41.6318 29.3809 44.21 28.2529 45.2646 26.3779C45.499 25.9971 45.6162 25.6016 45.6162 25.2061C45.6162 24.0635 44.7227 23.3896 43.668 23.3896C43.0234 23.3896 42.5986 23.5654 42.0566 24.0781C40.8994 25.25 39.918 25.7041 38.4971 25.7041C36.6221 25.7041 35.3477 24.3857 35.3477 22.4521V22.1592H44.0195C45.3672 22.1592 46.1143 21.4268 46.1143 20.1084C46.1143 15.8018 42.9941 12.667 38.248 12.667C33.3848 12.667 30.3086 15.9336 30.3086 21.1045C30.3086 26.29 33.3408 29.3809 38.4531 29.3809ZM35.4209 19.2002C35.5527 17.5303 36.7393 16.3584 38.3506 16.3584C39.9766 16.3584 41.1338 17.4717 41.2217 19.2002H35.4209ZM52.8965 29.2344C54.8154 29.2344 56.7637 28.3408 57.6279 26.7295H57.7305V27.0957C57.877 28.6191 58.8584 29.3369 60.2354 29.3369C61.7148 29.3369 62.7842 28.502 62.7842 26.7295V18.0576C62.7842 14.8496 59.957 12.667 55.6943 12.667C52.0322 12.667 49.3662 13.8682 48.6924 15.8457C48.5752 16.1533 48.5312 16.417 48.5312 16.7832C48.5312 17.8965 49.4102 18.6729 50.6553 18.6729C51.4463 18.6729 52.1055 18.3799 52.7061 17.7793C53.7021 16.6953 54.3174 16.373 55.4307 16.373C56.793 16.373 57.7012 17.0762 57.7012 18.3506V19.2588L53.9658 19.4785C49.835 19.7275 47.5352 21.3975 47.5352 24.3857C47.5352 27.2715 49.9229 29.2344 52.8965 29.2344ZM54.7422 25.6602C53.4971 25.6602 52.6621 25.0449 52.6621 24.0342C52.6621 23.0967 53.4385 22.4668 54.8008 22.3643L57.7012 22.1738V23.2725C57.7012 24.6934 56.3242 25.6602 54.7422 25.6602ZM67.8818 29.3369C69.4639 29.3369 70.4746 28.3994 70.4746 26.6416V20.416C70.4746 18.5996 70.9873 17.8086 72.7744 17.7646C73.7412 17.7207 74.4736 17.501 74.957 17.0615C75.4404 16.6367 75.6895 16.0215 75.6895 15.2012C75.6895 14.2637 75.4258 13.6045 74.9131 13.2236C74.5762 12.9453 74.1074 12.8135 73.5215 12.8135C71.9248 12.8135 70.7529 13.9561 70.3574 16.1094H70.2549V15.3184C70.2549 13.6338 69.2588 12.7109 67.8086 12.7109C66.2998 12.7109 65.2744 13.6338 65.2744 15.3037V26.6416C65.2744 28.3994 66.2852 29.3369 67.8818 29.3369Z" fill="black"/>
<path d="M26.6299 82.5908C29.7451 82.5908 31.5444 80.7378 31.5444 77.4614V68.6797L42.958 50.6597C43.6831 49.5317 44.0054 48.4307 44.0054 47.249C44.0054 44.6172 41.9375 42.6567 39.1445 42.6567C37.1841 42.6567 35.895 43.543 34.6328 45.7988L26.8179 59.3608H26.6299L18.8149 45.7988C17.499 43.4355 16.3442 42.6567 14.1958 42.6567C11.3223 42.6567 9.22754 44.6172 9.22754 47.3296C9.22754 48.4575 9.5498 49.5854 10.248 50.6865L21.6885 68.6797V77.4614C21.6885 80.7378 23.4878 82.5908 26.6299 82.5908ZM64.1738 82.6714C75.9097 82.6714 83.2949 74.9907 83.2949 62.6372C83.2949 50.2837 75.9097 42.5762 64.1738 42.5762C52.438 42.5762 45.0259 50.2837 45.0259 62.6372C45.0259 74.9907 52.4111 82.6714 64.1738 82.6714ZM64.1738 74.6685C58.6416 74.6685 55.0698 69.9956 55.0698 62.6372C55.0698 55.252 58.6685 50.5791 64.1738 50.5791C69.6792 50.5791 73.2778 55.252 73.2778 62.6372C73.2778 69.9956 69.6792 74.6685 64.1738 74.6685ZM104.806 82.6714C114.877 82.6714 121.483 76.9512 121.483 68.25V47.7861C121.483 44.5098 119.684 42.6567 116.542 42.6567C113.427 42.6567 111.627 44.5098 111.627 47.7861V67.2026C111.627 71.7144 109.184 74.3999 104.806 74.3999C100.402 74.3999 97.958 71.7144 97.958 67.2026V47.7861C97.958 44.5098 96.1587 42.6567 93.0435 42.6567C89.9282 42.6567 88.1021 44.5098 88.1021 47.7861V68.25C88.1021 76.9512 94.7085 82.6714 104.806 82.6714Z" fill="#6A5ACB"/>
</svg>
