<svg width="50" height="50" viewBox="0 0 50 50" fill="none" xmlns="http://www.w3.org/2000/svg">
<circle cx="25" cy="25" r="25" fill="#6A5ACB"/>
<path d="M28.625 18.7292V32.2708C28.625 32.7549 28.625 32.9969 28.665 33.1981C28.8294 34.0246 29.475 34.6709 30.3015 34.8353C30.5027 34.8753 30.7447 34.8753 31.2288 34.8753C31.7127 34.8753 31.9556 34.8753 32.1569 34.8353C32.9833 34.6709 33.6293 34.0246 33.7937 33.1981C33.8333 32.9986 33.8333 32.7591 33.8333 32.2835V18.7164C33.8333 18.2409 33.8333 18.0009 33.7937 17.8014C33.6293 16.975 32.9829 16.3294 32.1565 16.165C31.9552 16.125 31.7132 16.125 31.2292 16.125C30.7451 16.125 30.5027 16.125 30.3015 16.165C29.475 16.3294 28.8294 16.975 28.665 17.8014C28.625 18.0027 28.625 18.2451 28.625 18.7292Z" stroke="white" stroke-width="2.08333" stroke-linecap="round" stroke-linejoin="round"/>
<path d="M17.1667 18.7292V32.2708C17.1667 32.7549 17.1667 32.9969 17.2067 33.1981C17.3711 34.0246 18.0167 34.6709 18.8431 34.8353C19.0443 34.8753 19.2864 34.8753 19.7704 34.8753C20.2544 34.8753 20.4973 34.8753 20.6986 34.8353C21.525 34.6709 22.1709 34.0246 22.3353 33.1981C22.375 32.9986 22.375 32.7591 22.375 32.2835V18.7164C22.375 18.2409 22.375 18.0009 22.3353 17.8014C22.1709 16.975 21.5245 16.3294 20.6981 16.165C20.4969 16.125 20.2548 16.125 19.7708 16.125C19.2868 16.125 19.0443 16.125 18.8431 16.165C18.0167 16.3294 17.3711 16.975 17.2067 17.8014C17.1667 18.0027 17.1667 18.2451 17.1667 18.7292Z" stroke="white" stroke-width="2.08333" stroke-linecap="round" stroke-linejoin="round"/>
</svg>
